<svg width="98" height="96" viewBox="0 0 98 96" fill="none" xmlns="http://www.w3.org/2000/svg">
<g id="calendar">
<path id="Vector" d="M61.25 16V8M61.25 16V24M61.25 16H42.875M12.25 40V76C12.25 78.1217 13.1104 80.1566 14.642 81.6569C16.1735 83.1571 18.2507 84 20.4167 84H77.5833C79.7493 84 81.8265 83.1571 83.358 81.6569C84.8896 80.1566 85.75 78.1217 85.75 76V40M12.25 40H85.75M12.25 40V24C12.25 21.8783 13.1104 19.8434 14.642 18.3431C16.1735 16.8429 18.2507 16 20.4167 16H28.5833M85.75 40V24C85.75 21.8783 84.8896 19.8434 83.358 18.3431C81.8265 16.8429 79.7493 16 77.5833 16H75.5417M28.5833 8V24" stroke="#1A1A1A" stroke-width="4" stroke-linecap="round" stroke-linejoin="round"/>
</g>
</svg>
