<svg width="87" height="102" viewBox="0 0 87 102" fill="none" xmlns="http://www.w3.org/2000/svg">
<g id="Group 769">
<path id="Vector" d="M2 100V93.875C2 82.5038 6.37231 71.5984 14.1551 63.5578C21.9378 55.5172 32.4935 51 43.5 51M43.5 51C54.5065 51 65.0622 55.5172 72.8449 63.5578C80.6277 71.5984 85 82.5038 85 93.875V100M43.5 51C49.7894 51 55.8212 48.4188 60.2685 43.8241C64.7158 39.2295 67.2143 32.9978 67.2143 26.5C67.2143 20.0022 64.7158 13.7705 60.2685 9.17588C55.8212 4.58124 49.7894 2 43.5 2C37.2106 2 31.1788 4.58124 26.7315 9.17588C22.2842 13.7705 19.7857 20.0022 19.7857 26.5C19.7857 32.9978 22.2842 39.2295 26.7315 43.8241C31.1788 48.4188 37.2106 51 43.5 51Z" stroke="#1A1A1A" stroke-width="3.625" stroke-linecap="round" stroke-linejoin="round"/>
</g>
</svg>
