<svg width="87" height="94" viewBox="0 0 87 94" fill="none" xmlns="http://www.w3.org/2000/svg">
<g id="map-pin">
<g id="Group">
<path id="Vector" d="M72.5 39.1668C72.5 56.4707 43.5 86.1668 43.5 86.1668C43.5 86.1668 14.5 56.4707 14.5 39.1668C14.5 30.8567 17.5553 22.887 22.9939 17.0108C28.4325 11.1347 35.8087 7.8335 43.5 7.8335C51.1913 7.8335 58.5675 11.1347 64.0061 17.0108C69.4447 22.887 72.5 30.8567 72.5 39.1668Z" stroke="#1A1A1A" stroke-width="4"/>
<path id="Vector_2" d="M43.5 43.0833C44.4614 43.0833 45.3834 42.6707 46.0633 41.9362C46.7431 41.2017 47.125 40.2054 47.125 39.1667C47.125 38.1279 46.7431 37.1317 46.0633 36.3972C45.3834 35.6626 44.4614 35.25 43.5 35.25C42.5386 35.25 41.6166 35.6626 40.9367 36.3972C40.2569 37.1317 39.875 38.1279 39.875 39.1667C39.875 40.2054 40.2569 41.2017 40.9367 41.9362C41.6166 42.6707 42.5386 43.0833 43.5 43.0833Z" fill="#1A1A1A" stroke="#1A1A1A" stroke-width="4" stroke-linecap="round" stroke-linejoin="round"/>
</g>
</g>
</svg>
